<svg xmlns="http://www.w3.org/2000/svg" width="187" height="24">
    <path fill="#FFF" fill-rule="evenodd" d="M181.915 23.515v-1.58C180.739 23.58 178.896 24 177.498 24c-1.526 0-3.401-.452-5.117-2.291-1.366-1.483-2.034-3.129-2.034-5.29 0-2.71 1.049-4.614 2.193-5.775 1.208-1.226 3.083-2.032 5.116-2.032 2.289 0 3.655 1.194 4.259 1.871V9.095H187v14.42h-5.085zm-.826-9.58c-.477-.452-1.208-.936-2.289-.936-.635 0-1.493.226-2.224.936-.699.677-1.017 1.612-1.017 2.355 0 .839.35 1.742.985 2.355.54.516 1.43.967 2.288.967.826 0 1.653-.354 2.288-.999.445-.453.954-1.162.954-2.323 0-.678-.191-1.581-.985-2.355zm-18.038 2.29c0-1.065-.064-2.161-.636-2.806-.477-.549-1.113-.614-1.621-.614-.54 0-1.271.097-1.843.614-.445.419-.858 1.193-.858 2.354v7.742h-5.085V-.002h5.085v10.904c.381-.483.985-1.065 1.589-1.419.985-.581 2.034-.71 2.924-.71 2.002 0 3.336.678 4.195 1.548 1.271 1.291 1.334 2.646 1.334 4.033v9.161h-5.084v-7.29zm-18.058 5.71c-1.43 1.871-3.305 2.065-4.29 2.065-2.034 0-3.655-.678-4.99-2-1.43-1.42-2.288-3.452-2.288-5.742 0-2.453 1.017-4.453 2.32-5.71 1.398-1.356 3.273-1.936 5.021-1.936 1.939 0 3.305.871 4.227 1.871V-.002h5.085v23.517h-5.085v-1.58zm-.794-7.968c-.572-.613-1.367-.968-2.32-.968-1.081 0-1.812.484-2.257.936-.572.58-.985 1.484-.985 2.451 0 .743.318 1.581.985 2.259.699.71 1.526.967 2.257.967.826 0 1.652-.387 2.192-.87.668-.614 1.081-1.581 1.081-2.452 0-.807-.445-1.775-.953-2.323zm-18.137 7.968c-1.431 1.871-3.306 2.065-4.291 2.065-2.034 0-3.654-.678-4.989-2-1.43-1.42-2.288-3.452-2.288-5.742 0-2.453 1.017-4.453 2.32-5.71 1.398-1.356 3.273-1.936 5.021-1.936 1.938 0 3.305.871 4.227 1.871V-.002h5.084v23.517h-5.084v-1.58zm-.795-7.968c-.572-.613-1.366-.968-2.32-.968-1.08 0-1.811.484-2.256.936-.572.58-.985 1.484-.985 2.451 0 .743.317 1.581.985 2.259.699.71 1.525.967 2.256.967.826 0 1.653-.387 2.193-.87.667-.614 1.081-1.581 1.081-2.452 0-.807-.445-1.775-.954-2.323zM104.826 24c-2.129 0-4.735-.226-6.42-2.065-1.08-1.161-1.334-2.451-1.334-3.839V9.095h5.085v8.066c0 .58.095 1.484.762 2.097.509.451 1.176.548 1.78.548.636 0 1.239-.065 1.811-.613.636-.645.731-1.388.731-2.032V9.095h5.085v9.001c0 1.226-.095 2.549-1.366 3.871-1.748 1.839-4.195 2.033-6.134 2.033zm-17.476-.485h-8.835V1.998h8.2c1.525 0 3.337.226 4.64 1.678.731.807 1.303 2.129 1.303 4.033 0 .935-.159 1.742-.604 2.645-.445.838-.922 1.322-1.716 1.677 1.112.13 2.224.645 2.892 1.291.858.839 1.43 2.225 1.43 3.935 0 2.033-.763 3.42-1.557 4.226-1.145 1.194-3.147 2.032-5.753 2.032zm-.222-16.581c-.35-.355-1.017-.645-2.098-.645h-1.017v4.194h1.017c.572 0 1.526-.064 2.098-.677.349-.355.508-.936.508-1.42 0-.549-.19-1.097-.508-1.452zm1.43 8.42c-.667-.678-2.034-.71-3.401-.71h-1.144v4.517h1.24c1.525 0 2.796-.162 3.4-.871.255-.29.445-.774.445-1.388 0-.677-.222-1.225-.54-1.548zM62.721-.002h5.085v23.517h-5.085V-.002zM50.715 19.677c.318.323.953.71 2.097.71.127 0 1.017-.032 1.653-.387.318-.194.667-.516.89-.969h4.862c-.223.807-.668 1.936-1.716 2.969-1.049 1.032-2.701 2-5.784 2-1.875 0-4.131-.42-5.879-2.194-.922-.935-2.098-2.71-2.098-5.452 0-2.419.89-4.355 2.129-5.581 1.176-1.161 3.019-2.096 5.816-2.096 1.653 0 3.782.354 5.466 1.967 2.003 1.936 2.257 4.452 2.257 6.065v.548H49.825c0 .775.286 1.807.89 2.42zm5.021-5.387c-.127-.549-.445-1.162-.826-1.549-.668-.678-1.589-.774-2.098-.774-.858 0-1.525.226-2.066.774-.349.387-.667.903-.762 1.549h5.752zm-10.36 9.225h-6.738l-3.622-4.29-3.623 4.29h-6.738l7.087-7.838-5.752-6.582h6.61l2.447 2.968 2.511-2.968h6.578l-5.879 6.582 7.119 7.838zM20.943 5.998c-1.589 0-2.86-1.29-2.86-2.902 0-1.614 1.271-2.904 2.86-2.904s2.86 1.29 2.86 2.904c0 1.612-1.271 2.902-2.86 2.902zM9.121 16.386H5.657v7.129H.159V1.998H8.93c1.844 0 3.75.355 5.371 1.936 1.653 1.613 1.97 3.42 1.97 5.226 0 1.71-.222 3.71-1.875 5.355-1.652 1.646-3.622 1.871-5.275 1.871zm.763-9.097c-.636-.677-1.653-.774-2.352-.774H5.657v5.355H7.5c.572 0 1.653-.065 2.32-.678.667-.58.699-1.451.699-1.967 0-.581-.063-1.355-.635-1.936zm13.602 16.226h-5.085V9.095h5.085v14.42z"/>
</svg>
